<svg id="레이어_1" data-name="레이어 1" xmlns="http://www.w3.org/2000/svg" viewBox="0 0 64.43 68.01"><defs><style>.cls-1{fill:#fddc18;stroke:#fddc18;stroke-miterlimit:10;stroke-width:1.08px;}.cls-2{fill:#51c9c0;}.cls-3{fill:#fff;}</style></defs><circle class="cls-1" cx="196.21" cy="335.7" r="2.97" transform="translate(-330.81 174.5) rotate(-80.81)"/><path class="cls-2" d="M196.31,302v27.77c0,.2-.37.32-.66.22-2.62-.94-11.75-5.95-.19-28.07C195.61,301.6,196.31,301.66,196.31,302Z" transform="translate(-164.29 -301.27)"/><path class="cls-2" d="M228.27,349.19l-25.76-10.37c-.19-.07-.16-.46,0-.69,1.85-2.08,9.91-8.68,26.11,10.3C228.87,348.68,228.55,349.3,228.27,349.19Z" transform="translate(-164.29 -301.27)"/><path class="cls-2" d="M164.4,352l24.6-12.9c.17-.09.45.18.5.48.38,2.76.18,13.17-24.78,13.2C164.41,352.77,164.14,352.13,164.4,352Z" transform="translate(-164.29 -301.27)"/><path class="cls-3" d="M164.78,369.28h11.34a.44.44,0,0,0,0-.87H164.78a.44.44,0,0,0,0,.87Z" transform="translate(-164.29 -301.27)"/><path class="cls-3" d="M219.9,369.28h1.91a.44.44,0,0,0,0-.87H219.9a.44.44,0,0,0,0,.87Z" transform="translate(-164.29 -301.27)"/><path class="cls-3" d="M223.94,369.28h4a.44.44,0,0,0,0-.87h-4a.44.44,0,0,0,0,.87Z" transform="translate(-164.29 -301.27)"/><path class="cls-3" d="M194.89,335.7a1.32,1.32,0,0,0,2.63,0C197.43,334,194.8,334,194.89,335.7Z" transform="translate(-164.29 -301.27)"/><path class="cls-3" d="M198.39,335.7a.28.28,0,0,0,0-.13,2.18,2.18,0,1,0-2.17,2.32,2.2,2.2,0,0,0,2.17-2.06A.29.29,0,0,0,198.39,335.7Zm-3.5,0c-.09-1.7,2.54-1.69,2.63,0A1.32,1.32,0,0,1,194.89,335.7Z" transform="translate(-164.29 -301.27)"/><path class="cls-3" d="M228.38,348.2a18.89,18.89,0,0,0-4.51-4.09,36.45,36.45,0,0,0-15.16-5.75c-.55-.09-.79.75-.23.84a36.63,36.63,0,0,1,14.77,5.54,24.28,24.28,0,0,1,3.24,2.6l-26.27-10.48c-.52-.21-.75.63-.23.84l27.9,11.14A.44.44,0,0,0,228.38,348.2Z" transform="translate(-164.29 -301.27)"/><path class="cls-3" d="M192.81,336.94l-26.67,13.83c-.42.22-.18.79.22.82a19.09,19.09,0,0,0,6-.77,36.79,36.79,0,0,0,14.24-7.75c.44-.36-.19-1-.62-.62A36.35,36.35,0,0,1,172.17,350a22.89,22.89,0,0,1-4,.73l25.09-13C193.75,337.44,193.31,336.68,192.81,336.94Z" transform="translate(-164.29 -301.27)"/><path class="cls-3" d="M195.92,301.48a19.17,19.17,0,0,0-2.21,5.8,36.8,36.8,0,0,0,.13,16.11c.11.55.95.32.84-.23a36.21,36.21,0,0,1-.07-15.88,22.22,22.22,0,0,1,1.23-3.78q-.19,14.12-.38,28.24a.44.44,0,0,0,.87,0q.21-15,.4-30A.44.44,0,0,0,195.92,301.48Z" transform="translate(-164.29 -301.27)"/><path class="cls-3" d="M217.17,368.41H196.64v-27.8a.44.44,0,0,0-.87,0v27.8H179.24a.44.44,0,0,0,0,.87h37.93A.44.44,0,0,0,217.17,368.41Z" transform="translate(-164.29 -301.27)"/><path class="cls-3" d="M204.62,349.91l.17.43c.3-.12.61-.25.9-.39l-.2-.42Z" transform="translate(-164.29 -301.27)"/><path class="cls-3" d="M206.34,349.09l.22.41c.29-.16.57-.33.85-.5l-.25-.4C206.89,348.77,206.62,348.94,206.34,349.09Z" transform="translate(-164.29 -301.27)"/><path class="cls-3" d="M202.81,350.51l.12.45c.32-.08.63-.18.94-.28l-.15-.44C203.43,350.34,203.12,350.43,202.81,350.51Z" transform="translate(-164.29 -301.27)"/><path class="cls-3" d="M210.74,345.48l.35.3c.21-.24.42-.5.61-.76l-.37-.28C211.14,345,210.94,345.24,210.74,345.48Z" transform="translate(-164.29 -301.27)"/><path class="cls-3" d="M209.42,346.86l.32.34c.24-.22.47-.45.7-.69l-.34-.32C209.88,346.42,209.65,346.64,209.42,346.86Z" transform="translate(-164.29 -301.27)"/><path class="cls-3" d="M208,348.07l.27.38c.27-.19.53-.4.78-.6l-.3-.36C208.46,347.69,208.2,347.88,208,348.07Z" transform="translate(-164.29 -301.27)"/><path class="cls-3" d="M175.13,335.34l-.46,0c0,.32,0,.65.07,1l.47,0C175.17,336,175.15,335.65,175.13,335.34Z" transform="translate(-164.29 -301.27)"/><path class="cls-3" d="M175.34,337.23l-.46.08c.05.32.12.64.19,1l.46-.11C175.45,337.86,175.39,337.54,175.34,337.23Z" transform="translate(-164.29 -301.27)"/><path class="cls-3" d="M175.16,333.43l-.46,0c0,.32,0,.65,0,1h.47C175.12,334.07,175.14,333.75,175.16,333.43Z" transform="translate(-164.29 -301.27)"/><path class="cls-3" d="M177.29,342.57l-.4.24c.16.28.34.56.52.83l.39-.26Q177.53,343,177.29,342.57Z" transform="translate(-164.29 -301.27)"/><path class="cls-3" d="M176.42,340.88l-.42.18c.13.3.27.6.42.89l.41-.21C176.69,341.46,176.55,341.17,176.42,340.88Z" transform="translate(-164.29 -301.27)"/><path class="cls-3" d="M175.77,339.09l-.45.13c.1.31.2.63.31.93l.44-.16Q175.91,339.54,175.77,339.09Z" transform="translate(-164.29 -301.27)"/><path class="cls-3" d="M205.52,317.37l.33-.33c-.24-.23-.48-.45-.73-.66l-.3.35C205.06,316.94,205.3,317.15,205.52,317.37Z" transform="translate(-164.29 -301.27)"/><path class="cls-3" d="M204.07,316.14l.28-.38-.8-.56-.25.39C203.56,315.76,203.82,316,204.07,316.14Z" transform="translate(-164.29 -301.27)"/><path class="cls-3" d="M206.81,318.78l.36-.3c-.2-.25-.42-.5-.64-.74l-.34.32C206.4,318.29,206.61,318.53,206.81,318.78Z" transform="translate(-164.29 -301.27)"/><path class="cls-3" d="M199,313.59l.13-.44c-.31-.09-.63-.18-1-.25l-.1.46Z" transform="translate(-164.29 -301.27)"/><path class="cls-3" d="M200.78,314.24l.18-.43c-.3-.13-.61-.25-.91-.36l-.16.44C200.19,314,200.49,314.11,200.78,314.24Z" transform="translate(-164.29 -301.27)"/><path class="cls-3" d="M202.49,315.09l.23-.41c-.29-.16-.58-.32-.87-.46l-.2.42Z" transform="translate(-164.29 -301.27)"/></svg>