<svg id="레이어_1" data-name="레이어 1" xmlns="http://www.w3.org/2000/svg" viewBox="0 0 64.43 68.01"><defs><style>.cls-1{fill:#fddc18;stroke:#fddc18;stroke-miterlimit:10;stroke-width:1.08px;}.cls-2{fill:#51c9c0;}.cls-3{fill:#231f20;}.cls-4{fill:#fff;}</style></defs><circle class="cls-1" cx="321.09" cy="354.1" r="2.97" transform="translate(-368.92 294.84) rotate(-80.81)"/><path class="cls-2" d="M321.19,320.36v27.77c0,.2-.37.32-.65.22-2.63-.94-11.75-6-.2-28.07C320.49,320,321.19,320.06,321.19,320.36Z" transform="translate(-289.18 -319.67)"/><path class="cls-2" d="M353.16,367.59l-25.77-10.37c-.18-.07-.16-.46,0-.69,1.85-2.08,9.91-8.67,26.11,10.31C353.75,367.08,353.43,367.7,353.16,367.59Z" transform="translate(-289.18 -319.67)"/><path class="cls-2" d="M289.28,370.39l24.6-12.89c.18-.1.46.17.5.47.38,2.76.18,13.17-24.77,13.2C289.29,371.17,289,370.53,289.28,370.39Z" transform="translate(-289.18 -319.67)"/><path class="cls-3" d="M289.67,387.68H301a.44.44,0,0,0,0-.87H289.67a.44.44,0,0,0,0,.87Z" transform="translate(-289.18 -319.67)"/><path class="cls-3" d="M344.79,387.68h1.9a.44.44,0,0,0,0-.87h-1.9a.44.44,0,0,0,0,.87Z" transform="translate(-289.18 -319.67)"/><path class="cls-3" d="M348.82,387.68h4a.44.44,0,0,0,0-.87h-4a.44.44,0,0,0,0,.87Z" transform="translate(-289.18 -319.67)"/><path class="cls-4" d="M319.77,354.1a1.32,1.32,0,0,0,2.63,0C322.31,352.41,319.68,352.4,319.77,354.1Z" transform="translate(-289.18 -319.67)"/><path class="cls-3" d="M323.28,354.1a.51.51,0,0,0,0-.13,2.18,2.18,0,1,0-2.17,2.32,2.19,2.19,0,0,0,2.17-2.06A.51.51,0,0,0,323.28,354.1Zm-3.51,0c-.09-1.7,2.54-1.69,2.63,0A1.32,1.32,0,0,1,319.77,354.1Z" transform="translate(-289.18 -319.67)"/><path class="cls-3" d="M353.27,366.6a18.74,18.74,0,0,0-4.52-4.09,36.45,36.45,0,0,0-15.16-5.75c-.55-.09-.79.75-.23.84a36.63,36.63,0,0,1,14.77,5.54,25.11,25.11,0,0,1,3.24,2.6L325.1,355.26c-.52-.21-.75.63-.23.84l27.9,11.14A.44.44,0,0,0,353.27,366.6Z" transform="translate(-289.18 -319.67)"/><path class="cls-3" d="M317.69,355.34,291,369.18c-.42.21-.18.78.22.81a19.05,19.05,0,0,0,6.05-.77,36.72,36.72,0,0,0,14.24-7.75c.44-.36-.18-1-.61-.62a36.36,36.36,0,0,1-13.86,7.53,22.11,22.11,0,0,1-4,.73l25.09-13C318.63,355.84,318.19,355.08,317.69,355.34Z" transform="translate(-289.18 -319.67)"/><path class="cls-3" d="M320.8,319.88a19.17,19.17,0,0,0-2.21,5.8,36.8,36.8,0,0,0,.13,16.11c.11.56,1,.32.84-.23a36.32,36.32,0,0,1-.07-15.87,22.94,22.94,0,0,1,1.23-3.79q-.2,14.12-.38,28.24a.44.44,0,0,0,.88,0q.19-15,.4-30A.44.44,0,0,0,320.8,319.88Z" transform="translate(-289.18 -319.67)"/><path class="cls-3" d="M342.05,386.81H321.52V359a.44.44,0,0,0-.87,0v27.8H304.12a.44.44,0,0,0,0,.87h37.93A.44.44,0,0,0,342.05,386.81Z" transform="translate(-289.18 -319.67)"/><path class="cls-3" d="M329.5,368.31l.17.43q.46-.18.9-.39l-.2-.42Z" transform="translate(-289.18 -319.67)"/><path class="cls-3" d="M331.22,367.49l.23.41.84-.5L332,367C331.77,367.17,331.5,367.34,331.22,367.49Z" transform="translate(-289.18 -319.67)"/><path class="cls-3" d="M327.69,368.91l.12.45c.32-.08.64-.18.94-.28l-.14-.44C328.31,368.74,328,368.83,327.69,368.91Z" transform="translate(-289.18 -319.67)"/><path class="cls-3" d="M335.62,363.88l.36.31c.21-.25.41-.51.61-.77l-.38-.28C336,363.39,335.82,363.64,335.62,363.88Z" transform="translate(-289.18 -319.67)"/><path class="cls-3" d="M334.3,365.26l.32.34c.24-.22.47-.45.7-.68l-.34-.33C334.76,364.82,334.54,365.05,334.3,365.26Z" transform="translate(-289.18 -319.67)"/><path class="cls-3" d="M332.83,366.47l.27.38c.27-.19.53-.4.78-.6l-.3-.36C333.34,366.09,333.09,366.28,332.83,366.47Z" transform="translate(-289.18 -319.67)"/><path class="cls-3" d="M300,353.74l-.46,0c0,.32,0,.65.07,1l.47-.05C300.05,354.37,300,354.05,300,353.74Z" transform="translate(-289.18 -319.67)"/><path class="cls-3" d="M300.22,355.63l-.46.08c.05.32.12.64.19,1l.46-.1C300.34,356.26,300.27,355.94,300.22,355.63Z" transform="translate(-289.18 -319.67)"/><path class="cls-3" d="M300,351.83l-.46,0c0,.32,0,.65-.05,1H300C300,352.47,300,352.15,300,351.83Z" transform="translate(-289.18 -319.67)"/><path class="cls-3" d="M302.17,361l-.4.24c.16.28.34.56.52.83l.39-.26Q302.41,361.39,302.17,361Z" transform="translate(-289.18 -319.67)"/><path class="cls-3" d="M301.31,359.28l-.43.18c.13.3.27.6.42.89l.41-.21C301.57,359.86,301.43,359.57,301.31,359.28Z" transform="translate(-289.18 -319.67)"/><path class="cls-3" d="M300.65,357.49l-.44.13c.09.31.19.63.3.93l.44-.16Q300.78,357.94,300.65,357.49Z" transform="translate(-289.18 -319.67)"/><path class="cls-3" d="M330.41,335.77l.32-.33c-.24-.23-.48-.45-.73-.66l-.3.35Z" transform="translate(-289.18 -319.67)"/><path class="cls-3" d="M329,334.54l.28-.37q-.39-.3-.81-.57l-.25.39C328.44,334.16,328.7,334.35,329,334.54Z" transform="translate(-289.18 -319.67)"/><path class="cls-3" d="M331.69,337.18l.37-.3c-.21-.25-.43-.5-.65-.74l-.34.32C331.28,336.69,331.49,336.93,331.69,337.18Z" transform="translate(-289.18 -319.67)"/><path class="cls-3" d="M323.87,332l.13-.45-.95-.25-.11.46Z" transform="translate(-289.18 -319.67)"/><path class="cls-3" d="M325.66,332.64l.18-.43c-.3-.13-.6-.25-.91-.36l-.16.44C325.07,332.39,325.37,332.51,325.66,332.64Z" transform="translate(-289.18 -319.67)"/><path class="cls-3" d="M327.37,333.49l.23-.41c-.28-.16-.57-.32-.86-.46l-.21.42Q327,333.25,327.37,333.49Z" transform="translate(-289.18 -319.67)"/></svg>